<svg width="560" height="324" viewBox="0 0 560 324" fill="none" xmlns="http://www.w3.org/2000/svg">
<rect width="560" height="264" rx="20" fill="#1B1B47"/>
<rect x="34" y="32" width="493" height="142" rx="13" fill="white"/>
<path d="M162.604 84.4844H137.095C136.629 81.1842 135.678 78.2528 134.241 75.6903C132.805 73.089 130.961 70.8759 128.709 69.0511C126.457 67.2263 123.856 65.8286 120.905 64.858C117.993 63.8873 114.829 63.402 111.412 63.402C105.239 63.402 99.8613 64.9356 95.2798 68.0028C90.6984 71.0312 87.1458 75.4574 84.6222 81.2812C82.0985 87.0663 80.8366 94.0937 80.8366 102.364C80.8366 110.866 82.0985 118.01 84.6222 123.795C87.1847 129.58 90.7566 133.948 95.3381 136.899C99.9195 139.85 105.219 141.325 111.237 141.325C114.615 141.325 117.741 140.879 120.614 139.986C123.526 139.093 126.107 137.792 128.359 136.084C130.611 134.337 132.475 132.221 133.95 129.736C135.464 127.251 136.513 124.417 137.095 121.233L162.604 121.349C161.944 126.824 160.294 132.104 157.653 137.19C155.052 142.238 151.538 146.761 147.112 150.76C142.725 154.72 137.483 157.865 131.388 160.195C125.331 162.485 118.478 163.631 110.83 163.631C100.191 163.631 90.679 161.223 82.2926 156.409C73.9451 151.595 67.3447 144.625 62.4915 135.501C57.6771 126.377 55.2699 115.331 55.2699 102.364C55.2699 89.357 57.7159 78.2917 62.608 69.1676C67.5 60.0436 74.1392 53.0937 82.5256 48.3182C90.9119 43.5038 100.347 41.0966 110.83 41.0966C117.741 41.0966 124.147 42.0672 130.048 44.0085C135.989 45.9498 141.25 48.7841 145.831 52.5114C150.412 56.1998 154.14 60.723 157.013 66.081C159.925 71.4389 161.788 77.5734 162.604 84.4844ZM219.024 42.7273V162H193.807V42.7273H219.024ZM252.892 42.7273H283.991L316.838 122.864H318.235L351.082 42.7273H382.181V162H357.721V84.3679H356.731L325.865 161.418H309.208L278.342 84.0767H277.352V162H252.892V42.7273ZM416.078 162V42.7273H496.447V63.5185H441.295V91.9389H492.312V112.73H441.295V141.209H496.68V162H416.078Z" fill="#9D0000"/>
<path d="M67.1776 219.04C69.6583 219.569 71.6509 220.809 73.1556 222.761C74.6603 224.672 75.4126 226.868 75.4126 229.349C75.4126 232.928 74.1519 235.774 71.6306 237.889C69.1499 239.963 65.6729 241 61.1996 241H41.2526V198.178H60.5286C64.8799 198.178 68.2756 199.174 70.7156 201.167C73.1963 203.16 74.4366 205.864 74.4366 209.28C74.4366 211.801 73.7656 213.896 72.4236 215.563C71.1223 217.23 69.3736 218.389 67.1776 219.04ZM51.6836 215.502H58.5156C60.2236 215.502 61.5249 215.136 62.4196 214.404C63.3549 213.631 63.8226 212.513 63.8226 211.049C63.8226 209.585 63.3549 208.467 62.4196 207.694C61.5249 206.921 60.2236 206.535 58.5156 206.535H51.6836V215.502ZM59.3696 232.582C61.1183 232.582 62.4603 232.196 63.3956 231.423C64.3716 230.61 64.8596 229.451 64.8596 227.946C64.8596 226.441 64.3513 225.262 63.3346 224.408C62.3586 223.554 60.9963 223.127 59.2476 223.127H51.6836V232.582H59.3696ZM107.266 206.596C111.17 206.596 114.301 207.897 116.66 210.5C119.018 213.062 120.198 216.6 120.198 221.114V241H109.828V222.517C109.828 220.24 109.238 218.471 108.059 217.21C106.879 215.949 105.293 215.319 103.301 215.319C101.308 215.319 99.7219 215.949 98.5426 217.21C97.3632 218.471 96.7736 220.24 96.7736 222.517V241H86.3426V195.86H96.7736V211.537C97.8309 210.032 99.2746 208.833 101.105 207.938C102.935 207.043 104.988 206.596 107.266 206.596ZM165.937 206.962V241H155.506V236.364C154.449 237.869 153.005 239.089 151.175 240.024C149.386 240.919 147.393 241.366 145.197 241.366C142.594 241.366 140.297 240.797 138.304 239.658C136.311 238.479 134.766 236.791 133.668 234.595C132.57 232.399 132.021 229.817 132.021 226.848V206.962H142.391V225.445C142.391 227.722 142.981 229.491 144.16 230.752C145.339 232.013 146.925 232.643 148.918 232.643C150.951 232.643 152.558 232.013 153.737 230.752C154.916 229.491 155.506 227.722 155.506 225.445V206.962H165.937ZM188.741 211.781C189.717 210.195 191.12 208.914 192.95 207.938C194.78 206.962 196.874 206.474 199.233 206.474C202.039 206.474 204.58 207.186 206.858 208.609C209.135 210.032 210.924 212.066 212.226 214.709C213.568 217.352 214.239 220.423 214.239 223.92C214.239 227.417 213.568 230.508 212.226 233.192C210.924 235.835 209.135 237.889 206.858 239.353C204.58 240.776 202.039 241.488 199.233 241.488C196.833 241.488 194.739 241.02 192.95 240.085C191.16 239.109 189.757 237.828 188.741 236.242V241H178.31V195.86H188.741V211.781ZM203.625 223.92C203.625 221.317 202.893 219.284 201.429 217.82C200.005 216.315 198.236 215.563 196.122 215.563C194.048 215.563 192.279 216.315 190.815 217.82C189.391 219.325 188.68 221.378 188.68 223.981C188.68 226.584 189.391 228.637 190.815 230.142C192.279 231.647 194.048 232.399 196.122 232.399C198.196 232.399 199.965 231.647 201.429 230.142C202.893 228.597 203.625 226.523 203.625 223.92ZM222.517 223.92C222.517 220.423 223.168 217.352 224.469 214.709C225.811 212.066 227.621 210.032 229.898 208.609C232.175 207.186 234.717 206.474 237.523 206.474C239.922 206.474 242.017 206.962 243.806 207.938C245.636 208.914 247.039 210.195 248.015 211.781V206.962H258.446V241H248.015V236.181C246.998 237.767 245.575 239.048 243.745 240.024C241.956 241 239.861 241.488 237.462 241.488C234.697 241.488 232.175 240.776 229.898 239.353C227.621 237.889 225.811 235.835 224.469 233.192C223.168 230.508 222.517 227.417 222.517 223.92ZM248.015 223.981C248.015 221.378 247.283 219.325 245.819 217.82C244.396 216.315 242.647 215.563 240.573 215.563C238.499 215.563 236.73 216.315 235.266 217.82C233.843 219.284 233.131 221.317 233.131 223.92C233.131 226.523 233.843 228.597 235.266 230.142C236.73 231.647 238.499 232.399 240.573 232.399C242.647 232.399 244.396 231.647 245.819 230.142C247.283 228.637 248.015 226.584 248.015 223.981ZM291.612 206.596C295.598 206.596 298.77 207.897 301.128 210.5C303.528 213.062 304.727 216.6 304.727 221.114V241H294.357V222.517C294.357 220.24 293.768 218.471 292.588 217.21C291.409 215.949 289.823 215.319 287.83 215.319C285.838 215.319 284.252 215.949 283.072 217.21C281.893 218.471 281.303 220.24 281.303 222.517V241H270.872V206.962H281.303V211.476C282.361 209.971 283.784 208.792 285.573 207.938C287.363 207.043 289.376 206.596 291.612 206.596ZM348.942 223.432C348.942 224.408 348.881 225.425 348.759 226.482H325.152C325.315 228.597 325.986 230.223 327.165 231.362C328.385 232.46 329.869 233.009 331.618 233.009C334.221 233.009 336.03 231.911 337.047 229.715H348.149C347.58 231.952 346.543 233.965 345.038 235.754C343.574 237.543 341.724 238.946 339.487 239.963C337.25 240.98 334.749 241.488 331.984 241.488C328.649 241.488 325.681 240.776 323.078 239.353C320.475 237.93 318.442 235.896 316.978 233.253C315.514 230.61 314.782 227.519 314.782 223.981C314.782 220.443 315.494 217.352 316.917 214.709C318.381 212.066 320.414 210.032 323.017 208.609C325.62 207.186 328.609 206.474 331.984 206.474C335.278 206.474 338.206 207.165 340.768 208.548C343.33 209.931 345.323 211.903 346.746 214.465C348.21 217.027 348.942 220.016 348.942 223.432ZM338.267 220.687C338.267 218.898 337.657 217.474 336.437 216.417C335.217 215.36 333.692 214.831 331.862 214.831C330.113 214.831 328.629 215.339 327.409 216.356C326.23 217.373 325.498 218.816 325.213 220.687H338.267ZM373.172 241.488C370.203 241.488 367.56 240.98 365.242 239.963C362.924 238.946 361.094 237.564 359.752 235.815C358.41 234.026 357.657 232.033 357.495 229.837H367.804C367.926 231.016 368.475 231.972 369.451 232.704C370.427 233.436 371.626 233.802 373.05 233.802C374.351 233.802 375.347 233.558 376.039 233.07C376.771 232.541 377.137 231.87 377.137 231.057C377.137 230.081 376.628 229.369 375.612 228.922C374.595 228.434 372.948 227.905 370.671 227.336C368.231 226.767 366.197 226.177 364.571 225.567C362.944 224.916 361.541 223.92 360.362 222.578C359.182 221.195 358.593 219.345 358.593 217.027C358.593 215.075 359.121 213.306 360.179 211.72C361.277 210.093 362.863 208.812 364.937 207.877C367.051 206.942 369.552 206.474 372.44 206.474C376.71 206.474 380.065 207.531 382.505 209.646C384.985 211.761 386.409 214.567 386.775 218.064H377.137C376.974 216.885 376.445 215.949 375.551 215.258C374.697 214.567 373.558 214.221 372.135 214.221C370.915 214.221 369.979 214.465 369.329 214.953C368.678 215.4 368.353 216.031 368.353 216.844C368.353 217.82 368.861 218.552 369.878 219.04C370.935 219.528 372.562 220.016 374.758 220.504C377.279 221.155 379.333 221.805 380.919 222.456C382.505 223.066 383.887 224.083 385.067 225.506C386.287 226.889 386.917 228.759 386.958 231.118C386.958 233.111 386.388 234.9 385.25 236.486C384.152 238.031 382.545 239.251 380.431 240.146C378.357 241.041 375.937 241.488 373.172 241.488ZM447.08 206.962L437.869 241H426.34L420.972 218.918L415.421 241H403.953L394.681 206.962H405.112L409.931 231.301L415.665 206.962H426.706L432.501 231.179L437.259 206.962H447.08ZM453.864 223.92C453.864 220.423 454.515 217.352 455.816 214.709C457.158 212.066 458.968 210.032 461.245 208.609C463.523 207.186 466.064 206.474 468.87 206.474C471.27 206.474 473.364 206.962 475.153 207.938C476.983 208.914 478.386 210.195 479.362 211.781V206.962H489.793V241H479.362V236.181C478.346 237.767 476.922 239.048 475.092 240.024C473.303 241 471.209 241.488 468.809 241.488C466.044 241.488 463.523 240.776 461.245 239.353C458.968 237.889 457.158 235.835 455.816 233.192C454.515 230.508 453.864 227.417 453.864 223.92ZM479.362 223.981C479.362 221.378 478.63 219.325 477.166 217.82C475.743 216.315 473.994 215.563 471.92 215.563C469.846 215.563 468.077 216.315 466.613 217.82C465.19 219.284 464.478 221.317 464.478 223.92C464.478 226.523 465.19 228.597 466.613 230.142C468.077 231.647 469.846 232.399 471.92 232.399C473.994 232.399 475.743 231.647 477.166 230.142C478.63 228.637 479.362 226.584 479.362 223.981ZM512.651 212.635C513.871 210.764 515.396 209.3 517.226 208.243C519.056 207.145 521.089 206.596 523.326 206.596V217.637H520.459C517.856 217.637 515.904 218.206 514.603 219.345C513.301 220.443 512.651 222.395 512.651 225.201V241H502.22V206.962H512.651V212.635Z" fill="white"/>
<path d="M111.814 299.148C111.124 299.148 110.325 299.32 109.417 299.665C108.508 299.978 107.192 300.276 105.469 300.558L103.495 297.268V296.986C105.939 296.485 107.819 296.015 109.135 295.576C110.482 295.106 111.422 294.573 111.955 293.978C112.487 293.351 112.754 292.615 112.754 291.769C112.754 290.829 112.456 289.701 111.861 288.385H95.1286L93.5306 285.33V284.86H121.12L122.718 287.915V288.385H114.587C114.994 289.168 115.339 289.983 115.621 290.829C115.934 291.644 116.091 292.443 116.091 293.226C116.091 293.978 115.934 294.699 115.621 295.388C115.307 296.046 114.9 296.657 114.399 297.221C115.84 298.318 117.015 299.602 117.924 301.075C118.864 302.516 119.334 304.005 119.334 305.54C119.334 306.856 118.989 308.094 118.3 309.253C117.61 310.381 116.623 311.29 115.339 311.979C114.085 312.668 112.581 313.013 110.827 313.013C109.041 313.013 107.443 312.653 106.033 311.932C104.654 311.211 103.385 310.24 102.226 309.018C101.098 307.796 100.064 306.417 99.1236 304.882C98.1836 303.315 97.2906 301.702 96.4446 300.041L98.2306 299.007C98.7946 300.104 99.437 301.263 100.158 302.485C100.878 303.707 101.693 304.851 102.602 305.916C103.51 306.981 104.544 307.859 105.704 308.548C106.863 309.206 108.179 309.535 109.652 309.535C111.375 309.535 112.848 309.065 114.07 308.125C115.292 307.154 115.903 305.853 115.903 304.224C115.903 303.378 115.73 302.579 115.386 301.827C115.041 301.044 114.555 300.401 113.929 299.9C113.333 299.399 112.628 299.148 111.814 299.148ZM140.598 313.765C138.686 313.765 137.041 313.358 135.663 312.543C134.284 311.697 133.219 310.679 132.467 309.488C131.746 308.297 131.386 307.185 131.386 306.151C131.386 305.211 131.715 304.365 132.373 303.613C130.806 302.673 129.6 301.498 128.754 300.088C127.939 298.647 127.532 297.362 127.532 296.234C127.532 295.075 127.986 294.15 128.895 293.461C129.803 292.74 131.213 292.38 133.125 292.38H138.812V288.385H125.464L123.866 285.33V284.86H155.826L157.424 287.915V288.385H151.925L152.019 316.82H151.549L147.789 314.376V311.603C146.473 312.418 145.251 312.982 144.123 313.295C142.995 313.608 141.82 313.765 140.598 313.765ZM147.977 288.385H142.619C142.65 289.544 142.666 290.766 142.666 292.051C142.697 293.336 142.713 294.495 142.713 295.529L142.149 295.905H133.971C131.934 295.905 130.916 296.626 130.916 298.067C130.916 298.882 131.213 299.681 131.809 300.464C132.404 301.216 133.391 301.733 134.77 302.015C135.866 301.514 137.041 301.169 138.295 300.981C139.548 300.793 140.598 300.699 141.444 300.699C141.945 300.699 142.337 300.887 142.619 301.263C142.901 301.639 143.104 302.046 143.23 302.485C143.386 302.924 143.465 303.237 143.465 303.425C143.465 303.738 143.23 304.052 142.76 304.365C142.321 304.647 141.271 304.788 139.611 304.788C139.078 304.788 138.561 304.772 138.06 304.741C136.838 305.117 135.992 305.603 135.522 306.198C135.052 306.762 134.817 307.342 134.817 307.937C134.817 308.595 135.114 309.222 135.71 309.817C136.305 310.412 137.386 310.71 138.953 310.71C140.206 310.71 141.538 310.412 142.948 309.817C144.358 309.222 145.987 308.25 147.836 306.903L147.977 288.385ZM163.543 299.43H166.081L166.128 288.385H160.159L158.561 285.33V284.86H188.359L189.957 287.915V288.385H184.458L184.552 314.47H184.082L180.322 312.026L180.369 302.955H170.076V306.339C170.076 307.122 169.716 307.514 168.995 307.514C168.525 307.514 167.914 307.279 167.162 306.809C166.442 306.308 165.705 305.681 164.953 304.929C164.233 304.177 163.622 303.409 163.12 302.626C162.619 301.811 162.368 301.106 162.368 300.511C162.368 300.229 162.462 299.978 162.65 299.759C162.838 299.54 163.136 299.43 163.543 299.43ZM180.51 288.385H169.982L170.029 299.43H180.416L180.51 288.385ZM169.48 272.029L169.527 271.7C170.749 271.481 171.798 271.34 172.676 271.277C173.553 271.214 174.133 271.183 174.415 271.183C176.013 271.183 177.501 271.778 178.88 272.969C180.258 274.16 181.653 275.836 183.063 277.998C184.473 280.129 186.008 282.604 187.669 285.424H185.131C183.627 282.823 182.373 280.818 181.371 279.408C180.337 277.967 179.428 276.964 178.645 276.4C177.861 275.805 177.031 275.507 176.154 275.507C175.652 275.507 174.963 275.554 174.086 275.648C173.177 275.742 172.362 275.867 171.642 276.024L169.48 272.029ZM224.282 288.385H218.783L218.877 314.47H218.407L214.647 312.026L214.741 300.229H206.469C206.469 302.046 206.375 303.315 206.187 304.036C205.999 304.757 205.544 305.117 204.824 305.117C204.166 305.117 203.461 304.913 202.709 304.506C201.957 304.099 201.252 303.566 200.594 302.908C199.967 302.25 199.45 301.529 199.043 300.746C198.635 299.963 198.432 299.211 198.432 298.49C198.432 297.613 198.776 297.08 199.466 296.892C200.186 296.673 201.158 296.563 202.38 296.563C202.944 296.563 203.868 296.579 205.153 296.61C206.437 296.61 207.91 296.641 209.571 296.704C211.263 296.735 212.986 296.767 214.741 296.798L214.835 288.385H196.458L194.86 285.33V284.86H222.684L224.282 287.915V288.385ZM251.169 314.705H250.699L246.939 312.261L247.127 288.385H242.991L241.393 285.33V284.86H247.362C246.798 283.983 246.391 283.121 246.14 282.275C245.89 281.398 245.764 280.552 245.764 279.737C245.764 278.484 246.078 277.324 246.704 276.259C247.362 275.194 248.365 274.332 249.712 273.674C251.06 272.985 252.752 272.64 254.788 272.64C256.637 272.64 258.517 272.969 260.428 273.627C262.34 274.254 264.376 275.288 266.538 276.729C268.7 278.17 271.05 280.066 273.588 282.416L272.319 283.873C270.659 282.463 268.951 281.194 267.196 280.066C265.442 278.907 263.64 277.982 261.791 277.293C259.974 276.604 258.125 276.259 256.245 276.259C254.585 276.259 253.222 276.541 252.156 277.105C251.122 277.638 250.37 278.327 249.9 279.173C249.43 280.019 249.195 280.928 249.195 281.899C249.195 282.432 249.258 282.933 249.383 283.403C249.54 283.873 249.744 284.359 249.994 284.86H254.976L256.574 287.915V288.385H251.075L251.169 314.705ZM279.68 319.687L279.163 321.708C275.403 320.768 272.379 319.624 270.092 318.277C267.804 316.93 266.128 315.473 265.063 313.906C264.029 312.339 263.512 310.757 263.512 309.159C263.512 307.561 263.966 306.073 264.875 304.694C263.903 303.879 263.057 302.877 262.337 301.686C261.647 300.464 261.303 299.226 261.303 297.973C261.303 296.312 261.976 294.965 263.324 293.931C264.702 292.897 266.849 292.38 269.763 292.38H276.108V288.385H259.282L257.684 285.33V284.86H283.722L285.32 287.915V288.385H279.962C279.962 289.576 279.962 290.829 279.962 292.145C279.993 293.43 280.009 294.558 280.009 295.529L279.445 295.905H270.609C268.76 295.905 267.319 296.203 266.285 296.798C265.251 297.393 264.734 298.333 264.734 299.618C264.734 300.245 264.89 300.871 265.204 301.498C265.517 302.093 265.877 302.595 266.285 303.002C267.287 302.093 268.447 301.373 269.763 300.84C271.11 300.307 272.52 300.041 273.993 300.041C275.465 300.041 276.703 300.292 277.706 300.793C278.74 301.263 279.554 301.874 280.15 302.626C280.776 303.378 281.231 304.161 281.513 304.976C281.795 305.791 281.936 306.527 281.936 307.185C281.936 309.786 280.291 311.775 277.001 313.154L274.792 310.005C275.826 309.504 276.719 308.893 277.471 308.172C278.254 307.42 278.646 306.496 278.646 305.399C278.646 304.49 278.332 303.832 277.706 303.425C277.079 302.986 276.217 302.767 275.121 302.767C273.648 302.767 272.316 303.127 271.126 303.848C269.966 304.537 269.042 305.446 268.353 306.574C267.695 307.671 267.366 308.83 267.366 310.052C267.366 311.149 267.726 312.292 268.447 313.483C269.167 314.642 270.421 315.755 272.207 316.82C274.024 317.885 276.515 318.841 279.68 319.687ZM312.203 314.705H311.733L307.973 312.261L308.161 288.385H304.025L302.427 285.33V284.86H308.396C307.801 283.92 307.378 283.027 307.127 282.181C306.908 281.335 306.798 280.536 306.798 279.784C306.798 277.653 307.644 275.914 309.336 274.567C311.06 273.22 313.598 272.546 316.95 272.546C320.146 272.546 323.656 273.282 327.478 274.755C331.301 276.228 335.609 278.703 340.403 282.181L339.369 283.779C337.27 282.369 335.03 281.084 332.648 279.925C330.267 278.766 327.87 277.857 325.457 277.199C323.045 276.51 320.726 276.165 318.501 276.165C316.026 276.165 314.021 276.635 312.485 277.575C310.981 278.515 310.229 279.909 310.229 281.758C310.229 282.197 310.276 282.682 310.37 283.215C310.496 283.748 310.715 284.296 311.028 284.86H316.01L317.608 287.915V288.385H312.109L312.203 314.705ZM334.886 314.94H334.416L326.097 304.788C324.561 302.877 323.527 301.435 322.995 300.464C322.462 299.461 322.196 298.615 322.196 297.926C322.196 296.923 322.995 296.422 324.593 296.422C325.063 296.422 325.705 296.453 326.52 296.516C327.366 296.579 328.071 296.641 328.635 296.704C328.791 295.921 328.885 295.028 328.917 294.025C328.979 292.991 329.011 292.098 329.011 291.346C329.011 290.657 328.995 290.093 328.964 289.654C328.964 289.184 328.948 288.761 328.917 288.385H320.316L318.718 285.33V284.86H351.665L353.263 287.915V288.385H347.764L347.858 314.47H347.388L343.628 312.026L343.675 302.767C342.39 303.237 341.043 303.472 339.633 303.472C338.755 303.472 337.627 303.3 336.249 302.955C334.87 302.579 333.288 301.67 331.502 300.229C330.75 301.608 329.418 302.485 327.507 302.861L337.283 312.966L334.886 314.94ZM332.254 298.349C332.63 298.568 333.162 298.803 333.852 299.054C334.572 299.273 335.324 299.461 336.108 299.618C336.922 299.775 337.69 299.853 338.411 299.853C339.507 299.853 340.541 299.681 341.513 299.336C342.484 298.96 343.22 298.553 343.722 298.114L343.816 288.385H332.724C332.786 288.98 332.818 289.638 332.818 290.359C332.849 291.08 332.865 291.581 332.865 291.863C332.865 293.242 332.802 294.495 332.677 295.623C332.583 296.751 332.442 297.66 332.254 298.349ZM389.11 307.608C387.261 307.608 385.522 307.107 383.893 306.104C382.953 305.571 382.107 304.929 381.355 304.177C379.914 305.587 378.363 306.621 376.702 307.279C374.853 308.031 373.177 308.407 371.673 308.407C370.138 308.407 368.743 308.125 367.49 307.561C366.268 306.997 365.218 306.276 364.341 305.399C363.495 304.49 362.837 303.535 362.367 302.532C361.897 301.529 361.662 300.589 361.662 299.712C361.662 298.396 362.21 297.237 363.307 296.234C361.928 295.513 360.738 294.558 359.735 293.367C358.732 292.145 358.231 290.798 358.231 289.325C358.231 287.758 358.779 286.521 359.876 285.612C361.004 284.703 362.43 284.249 364.153 284.249C365.5 284.249 366.566 284.515 367.349 285.048C368.164 285.549 368.759 286.223 369.135 287.069C369.511 287.884 369.699 288.745 369.699 289.654C369.699 289.873 369.683 290.093 369.652 290.312C369.652 290.531 369.636 290.735 369.605 290.923H369.182C368.775 289.638 368.242 288.745 367.584 288.244C366.957 287.743 366.19 287.492 365.281 287.492C364.216 287.492 363.338 287.805 362.649 288.432C361.991 289.027 361.662 289.826 361.662 290.829C361.662 292.051 362.101 292.96 362.978 293.555C363.855 294.119 364.795 294.401 365.798 294.401C366.707 294.401 367.647 294.244 368.618 293.931C369.621 293.618 370.827 293.398 372.237 293.273L373.976 296.939C370.655 297.252 368.336 297.863 367.02 298.772C365.735 299.649 365.093 300.652 365.093 301.78C365.093 302.845 365.547 303.707 366.456 304.365C367.396 305.023 368.493 305.352 369.746 305.352C370.937 305.352 372.394 304.992 374.117 304.271C375.59 303.644 377.235 302.595 379.052 301.122C378.269 299.743 377.72 298.224 377.407 296.563C379.851 295.968 381.637 295.325 382.765 294.636C383.924 293.915 384.504 293.022 384.504 291.957C384.504 291.55 384.394 291.033 384.175 290.406C383.987 289.779 383.642 289.106 383.141 288.385H374.164L372.566 285.33V284.86H402.599L404.197 287.915V288.385H398.698L398.792 314.47H398.322L394.562 312.026L394.609 305.916C393.669 306.543 392.729 306.981 391.789 307.232C390.849 307.483 389.956 307.608 389.11 307.608ZM394.75 288.385H385.726C387.167 290.578 387.888 292.443 387.888 293.978C387.888 295.169 387.387 296.218 386.384 297.127C385.413 298.036 383.783 298.803 381.496 299.43C381.527 300.37 381.794 301.247 382.295 302.062C382.828 302.845 383.517 303.472 384.363 303.942C385.24 304.412 386.212 304.647 387.277 304.647C388.342 304.647 389.486 304.381 390.708 303.848C391.93 303.315 393.246 302.469 394.656 301.31L394.75 288.385ZM415.097 314.705H414.627L410.867 312.261L411.055 288.385H406.919L405.321 285.33V284.86H411.29C410.632 283.795 410.193 282.87 409.974 282.087C409.786 281.272 409.692 280.52 409.692 279.831C409.692 277.418 410.663 275.585 412.606 274.332C414.58 273.079 417.353 272.452 420.925 272.452C424.434 272.452 428.711 273.173 433.756 274.614C438.832 276.024 444.44 278.499 450.582 282.04L449.689 283.685C446.963 282.275 444.049 281.006 440.947 279.878C437.845 278.719 434.727 277.794 431.594 277.105C428.492 276.416 425.515 276.071 422.664 276.071C421.536 276.071 420.408 276.149 419.28 276.306C418.152 276.463 417.118 276.745 416.178 277.152C415.269 277.559 414.533 278.139 413.969 278.891C413.405 279.612 413.123 280.567 413.123 281.758C413.123 282.165 413.17 282.62 413.264 283.121C413.389 283.622 413.608 284.202 413.922 284.86H418.904L420.502 287.915V288.385H415.003L415.097 314.705ZM448.683 314.47H448.213C445.988 311.587 444.139 308.987 442.667 306.668C441.194 304.349 440.458 302.187 440.458 300.182C440.458 299.618 440.505 299.101 440.599 298.631H433.22C433.22 300.448 433.126 301.733 432.938 302.485C432.75 303.206 432.295 303.566 431.575 303.566C430.917 303.566 430.212 303.362 429.46 302.955C428.708 302.548 428.003 302.015 427.345 301.357C426.718 300.699 426.201 299.978 425.794 299.195C425.386 298.412 425.183 297.66 425.183 296.939C425.183 296.062 425.527 295.529 426.217 295.341C426.937 295.122 427.909 295.012 429.131 295.012C429.507 295.012 430.18 295.028 431.152 295.059C432.123 295.059 433.267 295.075 434.583 295.106C435.93 295.137 437.324 295.169 438.766 295.2C440.238 295.2 441.633 295.216 442.949 295.247C443.826 294.683 444.891 294.26 446.145 293.978C447.398 293.696 448.792 293.555 450.328 293.555H456.955L457.002 288.385H423.209L421.611 285.33V284.86H464.851L466.449 287.915V288.385H460.95L461.044 314.47H460.574L456.814 312.026L456.908 297.08H450.845C448.557 297.08 446.85 297.597 445.722 298.631C444.625 299.634 444.077 300.871 444.077 302.344C444.077 303.033 444.171 303.691 444.359 304.318C444.578 304.945 444.923 305.634 445.393 306.386C445.894 307.138 446.568 308.031 447.414 309.065C448.291 310.068 449.388 311.321 450.704 312.825L448.683 314.47Z" fill="#007513"/>
</svg>
